<?xml version="1.0" encoding="iso-8859-1"?>
<!-- Generator: Adobe Illustrator 19.0.0, SVG Export Plug-In . SVG Version: 6.00 Build 0)  -->
<svg version="1.1" id="Capa_1" xmlns="http://www.w3.org/2000/svg" xmlns:xlink="http://www.w3.org/1999/xlink" x="0px" y="0px"
	 viewBox="0 0 512 512" style="enable-background:new 0 0 512 512;" xml:space="preserve">
<polygon style="fill:#B3593D;" points="408,389.001 460,404.958 502,382.001 502,502 10,502 10,350.001 139,384.001 209,434 
	252,416 273,447 351,447 387.927,462 "/>
<path style="fill:#DAE2EF;" d="M167.407,54.933L81.193,368.765L139,384.001l70,50l43-18l21,31h78l36.927,15l88.048-322.3
	L167.407,54.933z"/>
<g>
	
		<rect x="155.141" y="308.749" transform="matrix(0.9643 0.2649 -0.2649 0.9643 93.3402 -34.6502)" style="fill:#5AD2E6;" width="40.001" height="40.001"/>
	
		<rect x="232.278" y="329.951" transform="matrix(0.9643 0.2649 -0.2649 0.9643 101.712 -54.3259)" style="fill:#5AD2E6;" width="40.001" height="40.001"/>
	
		<rect x="309.428" y="351.133" transform="matrix(0.9643 0.2649 -0.2649 0.9643 110.0791 -74.0057)" style="fill:#5AD2E6;" width="40.001" height="40.001"/>
	
		<rect x="330.617" y="273.996" transform="matrix(0.9643 0.2649 -0.2649 0.9643 90.4028 -82.3742)" style="fill:#5AD2E6;" width="40.001" height="40.001"/>
	
		<rect x="253.47" y="252.804" transform="matrix(0.9643 0.2649 -0.2649 0.9643 82.0332 -62.6955)" style="fill:#5AD2E6;" width="40.001" height="40.001"/>
	
		<rect x="176.333" y="231.612" transform="matrix(0.9643 0.2649 -0.2649 0.9643 73.6641 -43.0193)" style="fill:#5AD2E6;" width="40.001" height="40.001"/>
	
		<rect x="197.534" y="154.484" transform="matrix(-0.9643 -0.2649 0.2649 -0.9643 381.0781 400.3598)" style="fill:#5AD2E6;" width="40.001" height="40.001"/>
	
		<rect x="274.677" y="175.672" transform="matrix(-0.9643 -0.2649 0.2649 -0.9643 526.9955 462.4134)" style="fill:#5AD2E6;" width="40.001" height="40.001"/>
	
		<rect x="351.82" y="196.859" transform="matrix(-0.2649 0.9643 -0.9643 -0.2649 679.4265 -84.2337)" style="fill:#5AD2E6;" width="40.001" height="40.001"/>
</g>
<rect x="143.134" y="56.969" transform="matrix(-0.9643 -0.2649 0.2649 -0.9643 614.3439 236.7861)" style="fill:#A0A2A8;" width="360.008" height="40.001"/>
<path d="M202.378,305.132c0,0-38.525-10.584-38.571-10.596c-5.119-1.406-10.83,1.668-12.292,6.994c0,0-10.581,38.515-10.596,38.571
	c-1.439,5.238,1.786,10.862,6.994,12.291c0,0,38.515,10.58,38.571,10.596c5.1,1.401,10.834-1.686,12.292-6.994l10.596-38.571
	C210.835,312.098,207.704,306.595,202.378,305.132z M182.14,341.054l-19.286-5.298l5.298-19.286l19.286,5.298L182.14,341.054z"/>
<path d="M279.52,326.324c0,0-38.531-10.585-38.571-10.596c-5.121-1.407-10.828,1.664-12.292,6.994l-10.596,38.571
	c-1.463,5.325,1.668,10.829,6.994,12.291c0,0,38.535,10.586,38.571,10.596c5.117,1.406,10.831-1.673,12.292-6.994l10.596-38.571
	C287.977,333.289,284.846,327.787,279.52,326.324z M259.282,362.245l-19.286-5.298l5.298-19.286l19.286,5.298L259.282,362.245z"/>
<path d="M356.662,347.515l-38.571-10.596c-5.324-1.462-10.828,1.668-12.292,6.994c0,0-10.587,38.536-10.596,38.571
	c-1.408,5.124,1.657,10.826,6.994,12.291c0,0,38.515,10.581,38.571,10.596c5.101,1.401,10.837-1.695,12.292-6.994l10.596-38.571
	C365.119,354.481,361.988,348.978,356.662,347.515z M336.424,383.437l-19.286-5.298l5.298-19.286l19.286,5.298L336.424,383.437z"/>
<path d="M377.854,270.374l-38.571-10.596c-5.324-1.462-10.828,1.668-12.292,6.994c0,0-10.593,38.559-10.596,38.571
	c-1.407,5.121,1.656,10.826,6.994,12.291c0,0,38.54,10.587,38.571,10.596c5.119,1.406,10.831-1.675,12.292-6.994l10.596-38.571
	C386.311,277.34,383.18,271.837,377.854,270.374z M357.616,306.295l-19.286-5.298l5.298-19.286l19.286,5.298L357.616,306.295z"/>
<path d="M307.706,261.473c1.463-5.326-1.668-10.829-6.994-12.291c0,0-38.482-10.572-38.571-10.596
	c-5.191-1.426-10.875,1.835-12.292,6.994l-10.596,38.571c-1.463,5.326,1.668,10.829,6.994,12.291c0,0,38.553,10.591,38.571,10.596
	c5.128,1.409,10.829-1.667,12.292-6.994L307.706,261.473z M280.474,285.104l-19.286-5.298l5.298-19.286l19.286,5.298
	L280.474,285.104z"/>
<path d="M230.563,240.282c1.463-5.326-1.668-10.829-6.994-12.291c0,0-38.471-10.569-38.571-10.596
	c-5.177-1.422-10.88,1.852-12.292,6.994c0,0-10.564,38.455-10.596,38.571c-1.387,5.049,1.762,10.855,6.994,12.292
	c0,0,38.571,10.596,38.572,10.596c5.269,1.448,10.848-1.738,12.291-6.994L230.563,240.282z M203.332,263.912l-19.286-5.298
	l5.298-19.286l19.286,5.298L203.332,263.912z"/>
<path d="M190.297,198.108c0,0,38.489,10.573,38.571,10.596c5.105,1.402,10.84-1.708,12.292-6.994c0,0,10.565-38.458,10.596-38.57
	c1.421-5.173-1.849-10.879-6.994-12.292c0,0-38.475-10.57-38.571-10.596c-5.178-1.422-10.879,1.847-12.292,6.994l-10.596,38.571
	C181.84,191.143,184.972,196.646,190.297,198.108z M210.536,162.187l19.286,5.298l-5.298,19.286l-19.286-5.298L210.536,162.187z"/>
<path d="M267.439,219.3c0,0,38.556,10.592,38.571,10.596c5.122,1.407,10.824-1.649,12.292-6.994c0,0,10.57-38.476,10.596-38.571
	c1.411-5.138-1.878-10.887-6.994-12.292l-38.571-10.596c-5.327-1.465-10.829,1.668-12.292,6.994l-10.596,38.571
	C258.982,212.334,262.114,217.837,267.439,219.3z M287.678,183.379l19.286,5.298l-5.298,19.286l-19.286-5.298L287.678,183.379z"/>
<path d="M404.976,197.992c-1.273-2.249-3.353-4.053-5.929-4.76l-38.571-10.596c-5.327-1.464-10.829,1.668-12.292,6.994
	l-10.596,38.571c-1.463,5.326,1.668,10.829,6.994,12.291l38.571,10.596c5.266,1.447,10.848-1.736,12.291-6.994
	c0,0,10.573-38.488,10.596-38.571C406.73,203.011,406.268,200.273,404.976,197.992z M378.808,229.154l-19.286-5.298l5.298-19.286
	l19.286,5.298L378.808,229.154z"/>
<path d="M506.973,373.614c-2.88-1.728-6.55-2.147-9.769-0.388l-38.3,20.935l-38.822-11.914l62.902-230.254
	c0,0,5.766,1.584,5.772,1.586c5.037,1.384,10.822-1.643,12.292-6.994c0,0,10.551-38.407,10.596-38.571
	c1.416-5.156-1.868-10.885-6.994-12.292L157.51,0.36c-5.327-1.463-10.829,1.668-12.292,6.994c0,0-10.561,38.443-10.596,38.57
	c-1.384,5.037,1.662,10.828,6.994,12.292l13.5,3.709L74.172,356.572c-31.203-8.224-61.509-16.212-61.623-16.241
	C6.498,338.736,0,343.388,0,350.001V502c0,5.523,4.477,10,10,10h492c5.523,0,10-4.477,10-10c0,0,0-119.557,0-119.998
	C512,378.464,509.893,375.366,506.973,373.614z M161.854,22.294l327.854,90.065l-5.298,19.286L156.557,41.579L161.854,22.294z
	 M203.977,492H20V362.978l95.107,25.067L87.41,406.71c-4.1,2.76-5.56,8.01-3.48,12.5l13.56,29.26c-3.28,2.01-5.13,5.77-4.72,9.59
	c0.54,5.09,4.81,8.94,9.93,8.94c0.36,0,10.35-1.058,10.37-1.06c6.482-0.687,10.908-7.918,8-14.14l-15.41-33.27l33.174-22.36
	l60.878,43.484l20.75,36.52L203.977,492z M378,492H232.856l7.069-6.786c3.301-3.169,4.03-8.175,1.769-12.154l-19.235-33.853
	l25.852-10.822l16.409,24.224c1.86,2.747,4.962,4.392,8.279,4.392h76.046L378,468.761V492z M354.763,437.736
	C353.568,437.25,352.29,437,351,437h-72.696l-18.025-26.608c-2.671-3.941-7.749-5.454-12.141-3.616l-37.86,15.849l-65.466-46.761
	c-0.986-0.705-2.092-1.224-3.264-1.533L93.512,361.67l69.764-253.949c0,0,104.939,28.825,105.104,28.87
	c5.259,1.444,10.846-1.739,12.29-6.989c1.416-5.15-1.866-10.875-6.99-12.291l-105.108-28.87l5.828-21.216l289.297,79.473
	l-5.796,21.218L350.82,138.502c-5.252-1.45-10.85,1.75-12.29,6.99c-1.46,5.32,1.68,10.83,6.99,12.3l107.109,29.421L381.25,448.494
	L354.763,437.736z M492,492h-94v-28.915l5.094-18.526c0,0,15.587,16,15.656,16.07c3.741,3.84,10.32,3.915,14.137,0.183
	c3.84-3.754,3.921-10.316,0.193-14.143l-23.839-24.463l5.671-20.626l42.155,12.936c2.577,0.791,5.364,0.508,7.73-0.785L492,398.863
	V492z"/>
<circle cx="63" cy="461" r="10"/>
<circle cx="461" cy="458" r="10"/>
<circle cx="310" cy="138" r="10"/>
<g>
</g>
<g>
</g>
<g>
</g>
<g>
</g>
<g>
</g>
<g>
</g>
<g>
</g>
<g>
</g>
<g>
</g>
<g>
</g>
<g>
</g>
<g>
</g>
<g>
</g>
<g>
</g>
<g>
</g>
</svg>
