<?xml version="1.0" encoding="iso-8859-1"?>
<!-- Generator: Adobe Illustrator 19.0.0, SVG Export Plug-In . SVG Version: 6.00 Build 0)  -->
<svg version="1.1" id="Capa_1" xmlns="http://www.w3.org/2000/svg" xmlns:xlink="http://www.w3.org/1999/xlink" x="0px" y="0px"
	 viewBox="0 0 512.002 512.002" style="enable-background:new 0 0 512.002 512.002;" xml:space="preserve">
<g>
	<g>
		<path d="M256.001,0C114.842,0,0,114.842,0,256.002c0,141.159,114.842,256,256.001,256s256.001-114.841,256.001-256
			C512.002,114.842,397.16,0,256.001,0z M256.001,492.002C125.87,492.002,20,386.133,20,256.002C20,125.87,125.87,20,256.001,20
			s236.001,105.87,236.001,236.002C492.002,386.133,386.132,492.002,256.001,492.002z"/>
	</g>
</g>
<g>
	<g>
		<path d="M256.001,35C134.141,35,35,134.141,35,256.002c0,121.859,99.141,221,221.001,221s221.001-99.141,221.001-221
			C477.002,134.141,377.861,35,256.001,35z M256.001,457.002c-110.832,0-201.001-90.168-201.001-201
			C55,145.169,145.169,55,256.001,55s201.001,90.169,201.001,201.002C457.002,366.834,366.833,457.002,256.001,457.002z"/>
	</g>
</g>
<g>
	<g>
		<path d="M108.58,159.342c-4.785-2.762-10.9-1.122-13.66,3.66c-10.87,18.827-18.3,39.229-22.082,60.635
			c-0.961,5.439,2.669,10.627,8.107,11.588c0.589,0.104,1.174,0.154,1.752,0.154c4.76,0,8.978-3.412,9.836-8.262
			c3.375-19.105,10.006-37.313,19.707-54.115C115.002,168.219,113.363,162.104,108.58,159.342z"/>
	</g>
</g>
<g>
	<g>
		<path d="M441.3,239.858c-0.479-5.503-5.344-9.588-10.83-9.094c-5.502,0.479-9.573,5.328-9.094,10.83
			c2.97,34.091-4.505,67.773-21.614,97.407c-2.762,4.782-1.123,10.898,3.66,13.66c1.574,0.909,3.294,1.342,4.99,1.342
			c3.456,0,6.817-1.794,8.67-5.002C436.254,315.798,444.628,278.057,441.3,239.858z"/>
	</g>
</g>
<g>
	<g>
		<path d="M80.001,245.395c-5.522,0-10,4.478-10,10L70,256.002c0,5.522,4.478,10,10,10c5.522,0,10-4.478,10-10l0.001-0.607
			C90.001,249.872,85.523,245.395,80.001,245.395z"/>
	</g>
</g>
<g>
	<g>
		<path d="M435.827,208.475l-0.168-0.633c-1.439-5.331-6.928-8.488-12.261-7.048c-5.332,1.439-8.487,6.929-7.048,12.261l0.145,0.544
			c1.186,4.48,5.233,7.441,9.659,7.441c0.849,0,1.71-0.109,2.568-0.337C434.061,219.289,437.242,213.814,435.827,208.475z"/>
	</g>
</g>
<g>
	<g>
		<path d="M318.224,166.002H193.779c-15.317,0-27.778,12.461-27.778,27.777v124.445c0,15.316,12.461,27.777,27.778,27.777h124.444
			c15.316,0,27.777-12.461,27.777-27.777V193.779C346.001,178.463,333.54,166.002,318.224,166.002z M318.224,326.002H193.779
			c-4.289,0-7.778-3.489-7.778-7.777V193.779c0-4.288,3.489-7.777,7.778-7.777h124.444c4.288,0,7.777,3.489,7.777,7.777v124.446
			h0.001C326.001,322.513,322.512,326.002,318.224,326.002z"/>
	</g>
</g>
<g>
</g>
<g>
</g>
<g>
</g>
<g>
</g>
<g>
</g>
<g>
</g>
<g>
</g>
<g>
</g>
<g>
</g>
<g>
</g>
<g>
</g>
<g>
</g>
<g>
</g>
<g>
</g>
<g>
</g>
</svg>
